<?xml version="1.0" encoding="UTF-8" standalone="no"?>
<svg
   xmlns:dc="http://purl.org/dc/elements/1.1/"
   xmlns:cc="http://creativecommons.org/ns#"
   xmlns:rdf="http://www.w3.org/1999/02/22-rdf-syntax-ns#"
   xmlns:svg="http://www.w3.org/2000/svg"
   xmlns="http://www.w3.org/2000/svg"
   xmlns:xlink="http://www.w3.org/1999/xlink"
   xmlns:sodipodi="http://sodipodi.sourceforge.net/DTD/sodipodi-0.dtd"
   xmlns:inkscape="http://www.inkscape.org/namespaces/inkscape"
   version="1.1"
   x="0.000000"
   y="0.000000"
   width="1920.000000"
   height="1080.000000"
   inkscape:export-xdpi="300"
   inkscape:export-ydpi="300"
   id="svg2"
   inkscape:version="0.48.4 r"
   sodipodi:docname="escher001.svg">
  <metadata
     id="metadata200">
    <rdf:RDF>
      <cc:Work
         rdf:about="">
        <dc:format>image/svg+xml</dc:format>
        <dc:type
           rdf:resource="http://purl.org/dc/dcmitype/StillImage" />
        <dc:title></dc:title>
      </cc:Work>
    </rdf:RDF>
  </metadata>
  <defs
     id="defs198" />
  <sodipodi:namedview
     pagecolor="#cccccc"
     inkscape:pageopacity="0.000000"
     id="namedview4"
     showgrid="false"
     inkscape:object-nodes="true"
     inkscape:zoom="0.53508197"
     inkscape:cx="953.00145"
     inkscape:cy="689.5098"
     inkscape:window-width="1920"
     inkscape:window-height="1028"
     inkscape:window-x="-8"
     inkscape:window-y="-8"
     inkscape:window-maximized="1"
     inkscape:current-layer="layer1" />

  <g
     inkscape:groupmode="layer"
     id="Layer 2"
     inkscape:label="graphics1"
     sodipodi:insensitive="true"
     style="display:inline">
    <g
       id="A">
      <path
         style="fill:none;stroke:#777777;stroke-width:5px;stroke-linecap:round;stroke-linejoin:round"
         id="path2"
         d="M 0,50 
		 C 0,38 4,26 14,18 
		 m 0,0 
		 c 72,-62 274,-164 86,-140 
		 m 0,0 
		 c -42,6 -86,12 -100,2 
		 m 0,0 
		 c 30,-18 72,-36 84,-80"
         inkscape:connector-curvature="0" />
      <path
         style="fill:none;stroke:#777777;stroke-width:5px;stroke-linecap:round;stroke-linejoin:round"
         id="path3"
         d="m 0,-120 c 184,-34 112,-90 94,-48"
         inkscape:connector-curvature="0" />
    </g>
    <g
       id="B">
      <path
         style="fill:none;stroke:#777777;stroke-width:5px;stroke-linecap:round;stroke-linejoin:round"
         id="path5"
         d="m 84,-200 c 16,2 36,6 58,10 m 0,0 c 20,2 40,8 56,14 m 0,0 c 12,6 22,12 28,22 m 0,0 c 32,56 -28,88 -62,114 m 0,0 C 100,12 70,28 110,34 m 0,0 c 14,2 34,4 54,4 m 0,0 c 18,2 38,2 58,6 m 0,0 c 8,0 20,4 28,6 m 0,0 c 46,-46 96,-74 146,-70 m 0,0 c 14,2 26,6 40,12 m 0,0 c 10,6 18,10 28,18 m 0,0 c 12,10 26,24 36,40"
         inkscape:connector-curvature="0" />
      <path
         style="fill:none;stroke:#777777;stroke-width:5px;stroke-linecap:round;stroke-linejoin:round"
         id="path6"
         d="m 464,10 34,-50 m -62,32 28,-40 m -68,28 34,-38 M 222,44 250,-6 m -86,44 26,-40 m -80,36 66,-62 m 50,-126 30,-30 m -58,8 34,-34 m -90,20 52,-30"
         inkscape:connector-curvature="0" />
    </g>
  </g>  
</svg>
